<svg width="38" height="38" viewBox="0 0 111 111" xmlns="http://www.w3.org/2000/svg">

<g class="layer">

<path d="M0 55.56C0 24.87 24.86 0 55.56 0c30.69 0 55.56 24.86 55.56 55.56 0 30.69-24.86 55.56-55.56 55.56C24.87 111.12 0 86.26 0 55.56z" fill="#fff" />

<path d="M41.02 28.56c0 3.47-2.61 6.28-6.75 6.28-3.94 0-6.58-2.81-6.5-6.28-.08-3.61 2.56-6.33 6.58-6.33 4.06 0 6.61 2.72 6.67 6.33zM28.1 80.06V39.78h12.53v40.28H28.1zm22.56-27.42c0-5.03-.17-9.33-.33-12.86h10.86l.58 5.5h.25c1.64-2.56 5.78-6.42 12.44-6.42 8.22 0 14.42 5.44 14.42 17.31v23.89H76.35V57.73c0-5.19-1.81-8.72-6.33-8.72-3.47 0-5.53 2.39-6.33 4.69-.33.83-.5 1.97-.5 3.14v23.22H50.66V52.64z" />

</g>

</svg>